<svg xmlns="http://www.w3.org/2000/svg" viewBox="0 0 900 1165" width="900" height="1165">
<g fill="#000000" fill-rule="evenodd">
<path d="M 525.0 696.0 L 524.0 694.0 L 518.0 694.0 L 424.0 739.0 L 406.0 746.0 L 392.0 747.0 L 389.0 750.0 L 389.0 754.0 L 394.0 758.0 L 402.0 758.0 L 426.0 750.0 L 492.0 718.0 L 519.0 702.0 Z"/>
<path d="M 241.0 504.0 L 239.0 511.0 L 244.0 515.0 L 344.0 485.0 L 360.0 482.0 L 373.0 484.0 L 378.0 488.0 L 382.0 496.0 L 381.0 501.0 L 366.0 505.0 L 334.0 519.0 L 308.0 533.0 L 307.0 538.0 L 316.0 538.0 L 356.0 519.0 L 377.0 512.0 L 384.0 513.0 L 384.0 550.0 L 371.0 652.0 L 371.0 672.0 L 374.0 681.0 L 380.0 688.0 L 388.0 691.0 L 407.0 689.0 L 443.0 672.0 L 463.0 659.0 L 475.0 648.0 L 474.0 645.0 L 470.0 645.0 L 424.0 671.0 L 402.0 680.0 L 388.0 681.0 L 383.0 676.0 L 381.0 665.0 L 383.0 639.0 L 406.0 547.0 L 409.0 514.0 L 404.0 504.0 L 392.0 497.0 L 389.0 488.0 L 378.0 476.0 L 366.0 472.0 L 329.0 473.0 L 276.0 488.0 Z M 394.0 534.0 L 397.0 533.0 L 398.0 535.0 L 395.0 536.0 Z M 396.0 515.0 L 399.0 516.0 L 398.0 529.0 L 395.0 528.0 Z"/>
<path d="M 581.0 395.0 L 574.0 391.0 L 550.0 392.0 L 524.0 397.0 L 490.0 408.0 L 459.0 424.0 L 446.0 433.0 L 440.0 440.0 L 441.0 448.0 L 447.0 451.0 L 531.0 408.0 L 554.0 402.0 L 575.0 399.0 Z"/>
<path d="M 214.0 34.0 L 209.0 39.0 L 209.0 45.0 L 221.0 56.0 L 255.0 68.0 L 297.0 80.0 L 298.0 83.0 L 246.0 85.0 L 183.0 97.0 L 150.0 109.0 L 102.0 134.0 L 69.0 157.0 L 52.0 172.0 L 44.0 182.0 L 43.0 191.0 L 45.0 194.0 L 50.0 196.0 L 65.0 196.0 L 184.0 168.0 L 186.0 171.0 L 165.0 184.0 L 134.0 210.0 L 35.0 284.0 L 22.0 297.0 L 20.0 302.0 L 23.0 307.0 L 31.0 307.0 L 100.0 272.0 L 127.0 261.0 L 167.0 248.0 L 203.0 240.0 L 221.0 240.0 L 221.0 242.0 L 212.0 249.0 L 189.0 262.0 L 147.0 290.0 L 125.0 310.0 L 121.0 316.0 L 120.0 324.0 L 128.0 329.0 L 136.0 329.0 L 152.0 325.0 L 160.0 325.0 L 162.0 327.0 L 153.0 357.0 L 152.0 366.0 L 155.0 380.0 L 168.0 401.0 L 195.0 480.0 L 216.0 528.0 L 247.0 586.0 L 262.0 610.0 L 269.0 617.0 L 271.0 617.0 L 269.0 607.0 L 229.0 532.0 L 200.0 464.0 L 178.0 401.0 L 172.0 388.0 L 162.0 373.0 L 162.0 363.0 L 172.0 334.0 L 173.0 322.0 L 169.0 317.0 L 164.0 315.0 L 153.0 315.0 L 141.0 318.0 L 134.0 317.0 L 142.0 308.0 L 165.0 290.0 L 229.0 250.0 L 237.0 242.0 L 237.0 233.0 L 230.0 229.0 L 210.0 229.0 L 172.0 236.0 L 116.0 254.0 L 61.0 280.0 L 58.0 279.0 L 84.0 258.0 L 181.0 187.0 L 198.0 177.0 L 228.0 164.0 L 252.0 158.0 L 255.0 155.0 L 255.0 152.0 L 250.0 148.0 L 225.0 150.0 L 142.0 166.0 L 70.0 185.0 L 57.0 186.0 L 56.0 183.0 L 70.0 169.0 L 100.0 147.0 L 123.0 133.0 L 155.0 117.0 L 203.0 101.0 L 254.0 94.0 L 314.0 95.0 L 341.0 98.0 L 346.0 100.0 L 360.0 111.0 L 375.0 126.0 L 384.0 138.0 L 399.0 167.0 L 402.0 177.0 L 402.0 186.0 L 399.0 189.0 L 380.0 189.0 L 319.0 183.0 L 271.0 184.0 L 239.0 189.0 L 217.0 196.0 L 197.0 206.0 L 191.0 214.0 L 244.0 198.0 L 275.0 194.0 L 324.0 194.0 L 397.0 200.0 L 407.0 197.0 L 413.0 189.0 L 413.0 179.0 L 407.0 160.0 L 394.0 134.0 L 371.0 107.0 L 371.0 105.0 L 374.0 104.0 L 396.0 111.0 L 417.0 121.0 L 429.0 134.0 L 433.0 149.0 L 429.0 206.0 L 432.0 215.0 L 435.0 218.0 L 438.0 218.0 L 439.0 198.0 L 444.0 164.0 L 444.0 147.0 L 441.0 134.0 L 435.0 124.0 L 425.0 114.0 L 402.0 101.0 L 380.0 94.0 L 346.0 89.0 L 309.0 73.0 L 232.0 50.0 L 222.0 44.0 L 222.0 42.0 L 226.0 39.0 L 255.0 33.0 L 293.0 31.0 L 335.0 33.0 L 387.0 41.0 L 437.0 53.0 L 476.0 66.0 L 512.0 81.0 L 532.0 91.0 L 550.0 103.0 L 561.0 115.0 L 564.0 127.0 L 560.0 140.0 L 540.0 174.0 L 534.0 189.0 L 482.0 223.0 L 473.0 234.0 L 474.0 241.0 L 483.0 245.0 L 501.0 245.0 L 576.0 230.0 L 624.0 225.0 L 646.0 226.0 L 661.0 229.0 L 671.0 234.0 L 679.0 243.0 L 678.0 252.0 L 670.0 263.0 L 642.0 289.0 L 637.0 296.0 L 635.0 303.0 L 653.0 336.0 L 658.0 359.0 L 659.0 399.0 L 653.0 443.0 L 654.0 455.0 L 659.0 458.0 L 663.0 456.0 L 688.0 425.0 L 704.0 409.0 L 720.0 401.0 L 730.0 402.0 L 739.0 410.0 L 745.0 423.0 L 748.0 438.0 L 748.0 463.0 L 746.0 479.0 L 737.0 506.0 L 727.0 527.0 L 706.0 555.0 L 703.0 554.0 L 703.0 528.0 L 700.0 525.0 L 690.0 527.0 L 674.0 546.0 L 662.0 574.0 L 662.0 583.0 L 667.0 590.0 L 674.0 591.0 L 686.0 586.0 L 689.0 587.0 L 685.0 647.0 L 681.0 664.0 L 665.0 697.0 L 636.0 735.0 L 495.0 868.0 L 485.0 881.0 L 482.0 887.0 L 482.0 896.0 L 484.0 900.0 L 493.0 907.0 L 528.0 912.0 L 533.0 918.0 L 532.0 931.0 L 521.0 955.0 L 504.0 980.0 L 450.0 1048.0 L 418.0 1092.0 L 400.0 1126.0 L 397.0 1137.0 L 398.0 1144.0 L 401.0 1142.0 L 414.0 1114.0 L 432.0 1086.0 L 500.0 1000.0 L 525.0 965.0 L 539.0 939.0 L 543.0 922.0 L 540.0 909.0 L 535.0 905.0 L 522.0 900.0 L 502.0 899.0 L 496.0 897.0 L 493.0 894.0 L 493.0 888.0 L 496.0 882.0 L 544.0 833.0 L 636.0 749.0 L 655.0 727.0 L 673.0 700.0 L 676.0 701.0 L 678.0 769.0 L 682.0 800.0 L 688.0 823.0 L 703.0 853.0 L 713.0 867.0 L 733.0 887.0 L 822.0 955.0 L 878.0 1008.0 L 879.0 1005.0 L 873.0 994.0 L 840.0 959.0 L 807.0 931.0 L 751.0 890.0 L 725.0 865.0 L 709.0 843.0 L 694.0 805.0 L 687.0 756.0 L 684.0 713.0 L 684.0 681.0 L 691.0 664.0 L 695.0 645.0 L 701.0 576.0 L 727.0 546.0 L 747.0 510.0 L 757.0 476.0 L 759.0 462.0 L 759.0 440.0 L 754.0 417.0 L 749.0 406.0 L 738.0 395.0 L 725.0 391.0 L 715.0 392.0 L 703.0 398.0 L 681.0 418.0 L 668.0 435.0 L 665.0 434.0 L 670.0 400.0 L 670.0 359.0 L 663.0 331.0 L 646.0 301.0 L 648.0 297.0 L 665.0 283.0 L 685.0 262.0 L 690.0 246.0 L 685.0 232.0 L 676.0 225.0 L 661.0 219.0 L 644.0 216.0 L 622.0 215.0 L 570.0 221.0 L 507.0 234.0 L 489.0 235.0 L 488.0 232.0 L 504.0 220.0 L 612.0 154.0 L 611.0 151.0 L 603.0 151.0 L 595.0 154.0 L 553.0 178.0 L 552.0 174.0 L 569.0 146.0 L 574.0 134.0 L 575.0 124.0 L 573.0 114.0 L 566.0 103.0 L 548.0 88.0 L 507.0 67.0 L 468.0 52.0 L 419.0 37.0 L 349.0 24.0 L 293.0 20.0 L 268.0 21.0 L 236.0 26.0 Z M 692.0 542.0 L 693.0 556.0 L 691.0 569.0 L 682.0 577.0 L 674.0 579.0 L 673.0 574.0 L 677.0 563.0 L 685.0 549.0 Z"/>
</g></svg>